<svg width="92" height="29" viewBox="0 0 92 29" fill="none" xmlns="http://www.w3.org/2000/svg">
<path d="M8.27517 3.91146C7.60191 3.94005 6.92865 3.96863 6.25539 3.99722C7.65092 6.8401 8.45832 9.68559 8.67758 12.5285C9.19865 12.5259 9.71972 12.5207 10.2408 12.5181C10.3182 13.5913 10.3182 14.6671 10.2382 15.7404C9.71714 15.7378 9.19607 15.7326 8.675 15.73C8.36804 19.6409 6.94671 23.5518 4.4136 27.4627C2.94326 27.3821 1.47034 27.299 0 27.2106C6.37405 18.4871 6.38179 9.76874 0.0257954 1.05039C2.20035 0.92046 4.3749 0.798325 6.54946 0.686584C7.20208 1.76241 7.77732 2.83824 8.27517 3.91406V3.91146Z" fill="#23291B"/>
<path d="M8.26251 0.975367C10.4864 0.869652 12.7102 0.774251 14.934 0.686584C15.4564 1.78499 15.9154 2.88339 16.3111 3.9818C15.6226 4.00242 14.934 4.02563 14.2455 4.04884C15.3772 6.95987 16.0288 9.86832 16.2056 12.7793C16.7385 12.7768 17.2713 12.7742 17.8042 12.7716C17.8675 13.87 17.8649 14.9658 17.8042 16.0642C17.2713 16.0617 16.7385 16.0591 16.2056 16.0565C16.0235 18.9675 15.3667 21.8786 14.2323 24.787C14.9209 24.8102 15.6094 24.8309 16.2979 24.8541C15.8996 25.9525 15.4379 27.0509 14.9156 28.1493C12.6891 28.0616 10.4653 27.9662 8.23877 27.8605C13.5333 18.9005 13.5412 9.93793 8.26251 0.977945V0.975367Z" fill="#23291B"/>
<path d="M26.6704 14.0237C28.6156 14.6225 29.5346 18.9069 27.105 28.1493C25.6991 28.1157 24.2931 28.077 22.8872 28.0357C25.9687 17.9416 24.1282 15.7013 24.4057 15.7013C24.2251 15.7013 24.0444 15.7013 23.8664 15.7013C23.8219 18.7365 24.2591 20.0141 21.6436 27.9996C20.1513 27.9531 18.6564 27.9015 17.1641 27.8473C21.2038 18.6333 21.209 9.41674 17.1824 0.202753C19.2402 0.127905 21.2954 0.0608005 23.3532 0.00143871C25.1021 -0.0527612 27.5815 1.43128 27.9532 3.29215C28.2936 4.89233 28.558 6.4951 28.7465 8.09529C29.134 11.7293 28.2255 12.9836 26.6678 14.0263L26.6704 14.0237ZM24.6832 7.86042C24.1203 4.41744 22.9972 3.39538 23.026 3.39538C22.8218 3.40055 22.6176 3.40571 22.416 3.41087C22.3845 3.41087 22.9474 4.44583 23.547 7.87591C24.0575 11.3086 23.8376 12.3461 23.8716 12.3461C24.0523 12.3461 24.2329 12.3461 24.411 12.3461C24.3795 12.3461 25.1676 11.3034 24.6832 7.86042Z" fill="#23291B"/>
<path d="M37.9994 17.9124C38.175 17.9124 38.3506 17.9124 38.5263 17.9124C38.2972 13.3863 37.5742 6.85405 36.2251 0.041524C37.7117 0.0233572 39.2009 0.00778575 40.6875 0C41.3647 9.61281 41.3621 19.223 40.685 28.8358C38.8547 28.8228 37.0244 28.8047 35.1941 28.7787C35.7643 21.7119 35.0439 15.19 34.27 10.939C34.0944 10.939 33.9187 10.939 33.7431 10.939C34.3744 15.4365 34.7562 21.948 33.9875 28.758C32.4983 28.7346 31.0091 28.7061 29.5225 28.6749C31.7626 19.1685 31.7651 9.66212 29.5326 0.155715C31.3629 0.116786 33.1907 0.083048 35.021 0.0570955C36.6731 7.1032 37.6048 13.6328 37.9994 17.9098V17.9124Z" fill="#23291B"/>
<path d="M45.1887 0.00258902C47.5881 -0.00258902 49.9898 0.00776705 52.3892 0.0284792C52.4913 1.8382 52.1655 9.03567 52.4986 15.7749C52.7246 22.5167 53.6119 28.8002 53.6119 28.8002C52.2263 28.8158 50.8382 28.8261 49.4526 28.8313C49.2654 24.6086 49.1585 20.3885 49.1366 16.1658C48.7501 16.1658 48.3635 16.1658 47.977 16.1658C47.9892 20.3885 48.0499 24.6112 48.1593 28.8339C46.7737 28.8365 45.3856 28.8365 44 28.8339C44.2504 28.8339 44.9408 3.62203 45.1887 0V0.00258902ZM49.0175 3.46152C48.806 3.46152 48.5945 3.46152 48.383 3.46152C48.1569 6.05312 48.0208 9.05379 47.977 12.7147C48.3538 12.7147 48.7282 12.7147 49.105 12.7147C49.1244 9.05638 49.0734 6.05312 49.0175 3.46152Z" fill="#23291B"/>
<path d="M62.0308 18.14C62.2087 18.14 62.3865 18.14 62.5644 18.1374C61.8659 13.7671 61.5179 7.42892 62.8118 0.800931C64.3171 0.833982 65.8249 0.869575 67.3302 0.912795C64.3557 10.1416 64.3609 19.373 67.3431 28.6019C65.4898 28.6527 63.6366 28.6985 61.7834 28.7366C59.6054 21.8798 58.6027 15.5239 58.2522 11.3544C58.0743 11.3544 57.8965 11.3544 57.7186 11.3544C57.8939 15.7679 58.6749 22.1315 60.5591 28.7646C59.0512 28.7926 57.5434 28.818 56.0381 28.8358C54.6359 19.4518 54.6334 10.0705 56.0329 0.686523C57.8862 0.709405 59.7368 0.742456 61.5901 0.778049C60.5152 7.66282 61.1931 14.0086 62.0308 18.1451V18.14Z" fill="#23291B"/>
<path d="M78.0333 4.23852C75.2328 11.0231 75.2301 17.8101 78.0118 24.5972C78.7476 26.3542 78.0926 27.8703 76.2894 27.9388C74.1843 28.0174 72.0764 28.0858 69.9713 28.1492C66.4726 18.9941 66.4673 9.8416 69.9551 0.686523C72.0737 0.749907 74.1897 0.818361 76.3083 0.896956C78.1115 0.96541 78.7665 2.48154 78.0333 4.23852ZM72.3056 14.4179C72.1034 10.2041 73.3163 4.10415 73.4053 4.09908C73.195 4.09401 72.9848 4.0864 72.7746 4.08133C72.6748 4.08133 70.9551 10.1839 71.1573 14.4179C70.9578 18.6519 72.6856 24.7519 72.7853 24.7544C72.9821 24.7493 73.1816 24.7443 73.3783 24.7392C73.2894 24.7367 72.1061 18.6341 72.3002 14.4204L72.3056 14.4179Z" fill="#23291B"/>
<path d="M82.7178 1.37822C85.1828 1.50088 87.6503 1.63376 90.1152 1.77943C89.0763 3.42514 85.5124 9.90579 86.4515 15.9495C86.7112 21.9982 91.4763 27.6126 91.3714 27.6151C89.9479 27.702 88.5219 27.7864 87.0983 27.863C84.6458 24.017 83.2697 20.1711 82.9725 16.3251C82.5755 16.3277 82.1784 16.3302 81.7813 16.3328C82.0685 20.1992 83.3971 24.0656 85.7697 27.9346C84.3461 28.0112 82.9201 28.0828 81.4966 28.1492C81.6164 28.1492 78.1575 22.2717 78.3523 15.9929C78.0151 9.71158 81.3317 3.03416 82.7178 1.37311V1.37822ZM85.0229 4.74121C84.8057 4.73098 84.5884 4.72332 84.3711 4.7131C83.0949 7.07434 82.066 9.82146 81.7788 13.1742C82.1659 13.1768 82.5505 13.1793 82.9376 13.1819C83.1998 9.84702 84.0365 7.11012 85.0229 4.74121Z" fill="#23291B"/>
</svg>
