<svg width="112" height="44" viewBox="0 0 112 44" fill="none" xmlns="http://www.w3.org/2000/svg">
<path d="M9.94699 9.66125C9.94699 9.75676 9.9197 9.83181 9.86512 9.88638C9.81055 9.94096 9.7355 9.96825 9.63999 9.96825H4.64602C4.56416 9.96825 4.52322 10.0092 4.52322 10.0911V12.015C4.52322 12.0968 4.56416 12.1378 4.64602 12.1378H7.53188C7.62739 12.1378 7.70244 12.1651 7.75702 12.2196C7.8116 12.2742 7.83889 12.3493 7.83889 12.4448V15.1055C7.83889 15.201 7.8116 15.276 7.75702 15.3306C7.70244 15.3852 7.62739 15.4125 7.53188 15.4125H4.64602C4.56416 15.4125 4.52322 15.4534 4.52322 15.5353V20.693C4.52322 20.7885 4.49593 20.8636 4.44135 20.9181C4.38677 20.9727 4.31173 21 4.21622 21H0.982419C0.886906 21 0.81186 20.9727 0.757281 20.9181C0.702702 20.8636 0.675413 20.7885 0.675413 20.693V6.98006C0.675413 6.88455 0.702702 6.8095 0.757281 6.75492C0.81186 6.70035 0.886906 6.67306 0.982419 6.67306H9.63999C9.7355 6.67306 9.81055 6.70035 9.86512 6.75492C9.9197 6.8095 9.94699 6.88455 9.94699 6.98006V9.66125ZM20.0406 9.66125C20.0406 9.75676 20.0133 9.83181 19.9587 9.88638C19.9042 9.94096 19.8291 9.96825 19.7336 9.96825H14.7396C14.6578 9.96825 14.6168 10.0092 14.6168 10.0911V12.015C14.6168 12.0968 14.6578 12.1378 14.7396 12.1378H17.6255C17.721 12.1378 17.7961 12.1651 17.8506 12.2196C17.9052 12.2742 17.9325 12.3493 17.9325 12.4448V15.1055C17.9325 15.201 17.9052 15.276 17.8506 15.3306C17.7961 15.3852 17.721 15.4125 17.6255 15.4125H14.7396C14.6578 15.4125 14.6168 15.4534 14.6168 15.5353V17.582C14.6168 17.6639 14.6578 17.7048 14.7396 17.7048H19.7336C19.8291 17.7048 19.9042 17.7321 19.9587 17.7867C20.0133 17.8412 20.0406 17.9163 20.0406 18.0118V20.693C20.0406 20.7885 20.0133 20.8636 19.9587 20.9181C19.9042 20.9727 19.8291 21 19.7336 21H11.076C10.9805 21 10.9055 20.9727 10.8509 20.9181C10.7963 20.8636 10.769 20.7885 10.769 20.693V6.98006C10.769 6.88455 10.7963 6.8095 10.8509 6.75492C10.9055 6.70035 10.9805 6.67306 11.076 6.67306H19.7336C19.8291 6.67306 19.9042 6.70035 19.9587 6.75492C20.0133 6.8095 20.0406 6.88455 20.0406 6.98006V9.66125ZM27.7124 21C27.535 21 27.419 20.9181 27.3645 20.7544L25.6248 15.5967C25.6111 15.5285 25.5634 15.4944 25.4815 15.4944H25.1131C25.0312 15.4944 24.9903 15.5353 24.9903 15.6172V20.693C24.9903 20.7885 24.963 20.8636 24.9084 20.9181C24.8538 20.9727 24.7788 21 24.6833 21H21.4495C21.354 21 21.2789 20.9727 21.2243 20.9181C21.1698 20.8636 21.1425 20.7885 21.1425 20.693V6.98006C21.1425 6.88455 21.1698 6.8095 21.2243 6.75492C21.2789 6.70035 21.354 6.67306 21.4495 6.67306H26.8528C27.726 6.67306 28.497 6.86408 29.1656 7.24613C29.8342 7.62819 30.3527 8.16715 30.7211 8.86303C31.0895 9.54527 31.2737 10.3367 31.2737 11.2372C31.2737 12.0695 31.0963 12.8064 30.7415 13.4477C30.4004 14.0753 29.916 14.5665 29.2884 14.9213C29.2338 14.9622 29.2133 15.0168 29.227 15.085L31.3351 20.6521C31.3487 20.693 31.3555 20.7408 31.3555 20.7953C31.3555 20.9318 31.2668 21 31.0895 21H27.7124ZM25.1131 9.96825C25.0312 9.96825 24.9903 10.0092 24.9903 10.0911V12.4448C24.9903 12.5266 25.0312 12.5676 25.1131 12.5676H26.1978C26.5662 12.5676 26.8664 12.4516 27.0984 12.2196C27.3304 11.9877 27.4463 11.6738 27.4463 11.2781C27.4463 10.8688 27.3304 10.5482 27.0984 10.3162C26.8801 10.0842 26.5799 9.96825 26.1978 9.96825H25.1131ZM39.4346 6.98006C39.4346 6.88455 39.4619 6.8095 39.5165 6.75492C39.571 6.70035 39.6461 6.67306 39.7416 6.67306H42.9549C43.0504 6.67306 43.1255 6.70035 43.1801 6.75492C43.2346 6.8095 43.2619 6.88455 43.2619 6.98006V20.693C43.2619 20.7885 43.2346 20.8636 43.1801 20.9181C43.1255 20.9727 43.0504 21 42.9549 21H39.5779C39.4005 21 39.2845 20.925 39.2299 20.7749L36.385 14.1026C36.3714 14.048 36.3441 14.0207 36.3031 14.0207C36.2622 14.0207 36.2417 14.0548 36.2417 14.1231L36.2827 20.693C36.2827 20.7885 36.2554 20.8636 36.2008 20.9181C36.1462 20.9727 36.0712 21 35.9757 21H32.7623C32.6668 21 32.5918 20.9727 32.5372 20.9181C32.4826 20.8636 32.4553 20.7885 32.4553 20.693V6.98006C32.4553 6.88455 32.4826 6.8095 32.5372 6.75492C32.5918 6.70035 32.6668 6.67306 32.7623 6.67306H36.1189C36.2963 6.67306 36.4123 6.7481 36.4669 6.89819L39.3118 13.5705C39.3254 13.625 39.3527 13.6523 39.3937 13.6523C39.4346 13.6387 39.4551 13.5977 39.4551 13.5295L39.4346 6.98006ZM52.6107 21C52.4197 21 52.3037 20.9113 52.2628 20.7339L51.9149 19.158C51.8876 19.0897 51.8466 19.0556 51.7921 19.0556H48.722C48.6674 19.0556 48.6265 19.0897 48.5992 19.158L48.2717 20.7339C48.2308 20.9113 48.1148 21 47.9238 21H44.5672C44.458 21 44.3762 20.9727 44.3216 20.9181C44.2807 20.8499 44.2738 20.7612 44.3011 20.6521L47.9443 6.93913C47.9852 6.76175 48.0943 6.67306 48.2717 6.67306H52.3242C52.5016 6.67306 52.6107 6.76175 52.6517 6.93913L56.2743 20.6521C56.288 20.6793 56.2948 20.7135 56.2948 20.7544C56.2948 20.9181 56.1993 21 56.0083 21H52.6107ZM49.2541 16.006C49.2541 16.0743 49.2951 16.1084 49.3769 16.1084H51.1166C51.2122 16.1084 51.2531 16.0606 51.2395 15.9651L50.3184 11.708C50.3048 11.6534 50.2775 11.6261 50.2366 11.6261C50.1956 11.6261 50.1683 11.6534 50.1547 11.708L49.2541 15.9651V16.006ZM64.3189 6.98006C64.3189 6.88455 64.3462 6.8095 64.4007 6.75492C64.4553 6.70035 64.5304 6.67306 64.6259 6.67306H67.8392C67.9347 6.67306 68.0098 6.70035 68.0643 6.75492C68.1189 6.8095 68.1462 6.88455 68.1462 6.98006V20.693C68.1462 20.7885 68.1189 20.8636 68.0643 20.9181C68.0098 20.9727 67.9347 21 67.8392 21H64.4621C64.2848 21 64.1688 20.925 64.1142 20.7749L61.2693 14.1026C61.2556 14.048 61.2283 14.0207 61.1874 14.0207C61.1465 14.0207 61.126 14.0548 61.126 14.1231L61.1669 20.693C61.1669 20.7885 61.1396 20.8636 61.0851 20.9181C61.0305 20.9727 60.9554 21 60.8599 21H57.6466C57.5511 21 57.476 20.9727 57.4215 20.9181C57.3669 20.8636 57.3396 20.7885 57.3396 20.693V6.98006C57.3396 6.88455 57.3669 6.8095 57.4215 6.75492C57.476 6.70035 57.5511 6.67306 57.6466 6.67306H61.0032C61.1806 6.67306 61.2966 6.7481 61.3511 6.89819L64.1961 13.5705C64.2097 13.625 64.237 13.6523 64.2779 13.6523C64.3189 13.6387 64.3393 13.5977 64.3393 13.5295L64.3189 6.98006ZM69.7789 21C69.6834 21 69.6084 20.9727 69.5538 20.9181C69.4992 20.8636 69.4719 20.7885 69.4719 20.693V6.98006C69.4719 6.88455 69.4992 6.8095 69.5538 6.75492C69.6084 6.70035 69.6834 6.67306 69.7789 6.67306H74.425C75.4347 6.67306 76.3216 6.85726 77.0857 7.22567C77.8498 7.58043 78.4433 8.08528 78.8663 8.74023C79.2893 9.39518 79.5008 10.1525 79.5008 11.0121V16.6405C79.5008 17.5001 79.2893 18.2642 78.8663 18.9328C78.4433 19.5878 77.8498 20.0994 77.0857 20.4679C76.3216 20.8226 75.4347 21 74.425 21H69.7789ZM73.3197 17.582C73.3197 17.6639 73.3607 17.7048 73.4425 17.7048L74.4454 17.6843C74.7865 17.6843 75.0663 17.5479 75.2846 17.275C75.5165 17.0021 75.6393 16.6405 75.653 16.1902V11.4623C75.653 11.0121 75.537 10.6505 75.305 10.3776C75.0867 10.1047 74.7934 9.96825 74.425 9.96825H73.4425C73.3607 9.96825 73.3197 10.0092 73.3197 10.0911V17.582ZM88.0683 21C87.8773 21 87.7613 20.9113 87.7204 20.7339L87.3724 19.158C87.3452 19.0897 87.3042 19.0556 87.2496 19.0556H84.1796C84.125 19.0556 84.0841 19.0897 84.0568 19.158L83.7293 20.7339C83.6884 20.9113 83.5724 21 83.3814 21H80.0248C79.9156 21 79.8337 20.9727 79.7792 20.9181C79.7382 20.8499 79.7314 20.7612 79.7587 20.6521L83.4018 6.93913C83.4428 6.76175 83.5519 6.67306 83.7293 6.67306H87.7818C87.9592 6.67306 88.0683 6.76175 88.1093 6.93913L91.7319 20.6521C91.7456 20.6793 91.7524 20.7135 91.7524 20.7544C91.7524 20.9181 91.6569 21 91.4659 21H88.0683ZM84.7117 16.006C84.7117 16.0743 84.7527 16.1084 84.8345 16.1084H86.5742C86.6697 16.1084 86.7107 16.0606 86.697 15.9651L85.776 11.708C85.7624 11.6534 85.7351 11.6261 85.6941 11.6261C85.6532 11.6261 85.6259 11.6534 85.6123 11.708L84.7117 15.9651V16.006Z" fill="white"/>
<path d="M48.574 27.9466C48.574 28.0481 48.545 28.1279 48.4869 28.1859C48.4289 28.2439 48.3491 28.2729 48.2476 28.2729H42.9389C42.8518 28.2729 42.8083 28.3164 42.8083 28.4035V30.4486C42.8083 30.5357 42.8518 30.5792 42.9389 30.5792H46.0066C46.1082 30.5792 46.1879 30.6082 46.2459 30.6662C46.304 30.7242 46.333 30.804 46.333 30.9055V33.7339C46.333 33.8355 46.304 33.9153 46.2459 33.9733C46.1879 34.0313 46.1082 34.0603 46.0066 34.0603H42.9389C42.8518 34.0603 42.8083 34.1038 42.8083 34.1908V39.6736C42.8083 39.7752 42.7793 39.855 42.7213 39.913C42.6633 39.971 42.5835 40 42.482 40H39.0443C38.9428 40 38.863 39.971 38.805 39.913C38.747 39.855 38.718 39.7752 38.718 39.6736V25.0964C38.718 24.9948 38.747 24.9151 38.805 24.857C38.863 24.799 38.9428 24.77 39.0443 24.77H48.2476C48.3491 24.77 48.4289 24.799 48.4869 24.857C48.545 24.9151 48.574 24.9948 48.574 25.0964V27.9466ZM56.4319 40C56.2433 40 56.12 39.913 56.062 39.7389L54.2126 34.2561C54.1981 34.1836 54.1474 34.1473 54.0603 34.1473H53.6687C53.5817 34.1473 53.5382 34.1908 53.5382 34.2779V39.6736C53.5382 39.7752 53.5091 39.855 53.4511 39.913C53.3931 39.971 53.3133 40 53.2118 40H49.7742C49.6726 40 49.5929 39.971 49.5348 39.913C49.4768 39.855 49.4478 39.7752 49.4478 39.6736V25.0964C49.4478 24.9948 49.4768 24.9151 49.5348 24.857C49.5929 24.799 49.6726 24.77 49.7742 24.77H55.5181C56.4464 24.77 57.2659 24.9731 57.9766 25.3792C58.6873 25.7853 59.2385 26.3583 59.6301 27.098C60.0218 27.8233 60.2176 28.6645 60.2176 29.6219C60.2176 30.5066 60.029 31.2899 59.6519 31.9716C59.2893 32.6388 58.7744 33.161 58.1071 33.5381C58.0491 33.5816 58.0274 33.6397 58.0419 33.7122L60.2829 39.6301C60.2974 39.6736 60.3046 39.7244 60.3046 39.7824C60.3046 39.9275 60.2103 40 60.0218 40H56.4319ZM53.6687 28.2729C53.5817 28.2729 53.5382 28.3164 53.5382 28.4035V30.9055C53.5382 30.9926 53.5817 31.0361 53.6687 31.0361H54.8218C55.2135 31.0361 55.5326 30.9128 55.7791 30.6662C56.0257 30.4196 56.149 30.086 56.149 29.6654C56.149 29.2302 56.0257 28.8894 55.7791 28.6428C55.5471 28.3962 55.228 28.2729 54.8218 28.2729H53.6687ZM71.3297 27.9466C71.3297 28.0481 71.3007 28.1279 71.2427 28.1859C71.1847 28.2439 71.1049 28.2729 71.0033 28.2729H65.6946C65.6076 28.2729 65.5641 28.3164 65.5641 28.4035V30.4486C65.5641 30.5357 65.6076 30.5792 65.6946 30.5792H68.7624C68.8639 30.5792 68.9437 30.6082 69.0017 30.6662C69.0597 30.7242 69.0887 30.804 69.0887 30.9055V33.7339C69.0887 33.8355 69.0597 33.9153 69.0017 33.9733C68.9437 34.0313 68.8639 34.0603 68.7624 34.0603H65.6946C65.6076 34.0603 65.5641 34.1038 65.5641 34.1908V36.3666C65.5641 36.4536 65.6076 36.4971 65.6946 36.4971H71.0033C71.1049 36.4971 71.1847 36.5261 71.2427 36.5841C71.3007 36.6422 71.3297 36.7219 71.3297 36.8235V39.6736C71.3297 39.7752 71.3007 39.855 71.2427 39.913C71.1847 39.971 71.1049 40 71.0033 40H61.8001C61.6985 40 61.6188 39.971 61.5608 39.913C61.5027 39.855 61.4737 39.7752 61.4737 39.6736V25.0964C61.4737 24.9948 61.5027 24.9151 61.5608 24.857C61.6188 24.799 61.6985 24.77 61.8001 24.77H71.0033C71.1049 24.77 71.1847 24.799 71.2427 24.857C71.3007 24.9151 71.3297 24.9948 71.3297 25.0964V27.9466ZM72.8274 40C72.7258 40 72.6461 39.971 72.588 39.913C72.53 39.855 72.501 39.7752 72.501 39.6736V25.0964C72.501 24.9948 72.53 24.9151 72.588 24.857C72.6461 24.799 72.7258 24.77 72.8274 24.77H76.265C76.3665 24.77 76.4463 24.799 76.5043 24.857C76.5623 24.9151 76.5914 24.9948 76.5914 25.0964V39.6736C76.5914 39.7752 76.5623 39.855 76.5043 39.913C76.4463 39.971 76.3665 40 76.265 40H72.8274ZM88.4692 24.77C88.5707 24.77 88.6505 24.799 88.7085 24.857C88.7666 24.9151 88.7956 24.9948 88.7956 25.0964V27.9466C88.7956 28.0481 88.7666 28.1279 88.7085 28.1859C88.6505 28.2439 88.5707 28.2729 88.4692 28.2729H85.3797C85.2927 28.2729 85.2492 28.3164 85.2492 28.4035V39.6736C85.2492 39.7752 85.2201 39.855 85.1621 39.913C85.1041 39.971 85.0243 40 84.9228 40H81.4852C81.3836 40 81.3039 39.971 81.2458 39.913C81.1878 39.855 81.1588 39.7752 81.1588 39.6736V28.4035C81.1588 28.3164 81.1153 28.2729 81.0283 28.2729H78.004C77.9025 28.2729 77.8227 28.2439 77.7647 28.1859C77.7067 28.1279 77.6777 28.0481 77.6777 27.9466V25.0964C77.6777 24.9948 77.7067 24.9151 77.7647 24.857C77.8227 24.799 77.9025 24.77 78.004 24.77H88.4692ZM96.9015 40C96.6984 40 96.5751 39.9057 96.5316 39.7172L96.1617 38.0419C96.1327 37.9693 96.0892 37.9331 96.0312 37.9331H92.7676C92.7096 37.9331 92.6661 37.9693 92.6371 38.0419L92.2889 39.7172C92.2454 39.9057 92.1221 40 91.9191 40H88.3509C88.2349 40 88.1478 39.971 88.0898 39.913C88.0463 39.8404 88.0391 39.7462 88.0681 39.6301L91.9408 25.0529C91.9843 24.8643 92.1004 24.77 92.2889 24.77H96.5969C96.7854 24.77 96.9015 24.8643 96.945 25.0529L100.796 39.6301C100.81 39.6591 100.818 39.6954 100.818 39.7389C100.818 39.913 100.716 40 100.513 40H96.9015ZM93.3333 34.6913C93.3333 34.7638 93.3768 34.8 93.4638 34.8H95.3132C95.4147 34.8 95.4582 34.7493 95.4437 34.6477L94.4647 30.1223C94.4502 30.0642 94.4211 30.0352 94.3776 30.0352C94.3341 30.0352 94.3051 30.0642 94.2906 30.1223L93.3333 34.6477V34.6913ZM106.235 40.1741C105.162 40.1741 104.219 39.9855 103.406 39.6084C102.609 39.2312 101.985 38.7091 101.535 38.0419C101.1 37.3601 100.883 36.5769 100.883 35.6921V35.1917C100.883 35.0901 100.912 35.0104 100.97 34.9523C101.028 34.8943 101.107 34.8653 101.209 34.8653H104.581C104.683 34.8653 104.763 34.8943 104.821 34.9523C104.879 35.0104 104.908 35.0901 104.908 35.1917V35.4963C104.908 35.8154 105.038 36.091 105.299 36.323C105.575 36.5551 105.938 36.6712 106.387 36.6712C106.75 36.6712 107.018 36.5841 107.192 36.4101C107.366 36.2215 107.453 36.0112 107.453 35.7791C107.453 35.5035 107.33 35.2787 107.083 35.1046C106.851 34.9161 106.402 34.6695 105.735 34.3649L105.212 34.1038C104.4 33.7122 103.697 33.3206 103.102 32.9289C102.507 32.5373 101.992 32.0224 101.557 31.3842C101.122 30.7315 100.904 29.9555 100.904 29.0562C100.904 28.1714 101.122 27.3954 101.557 26.7282C102.007 26.0464 102.616 25.5243 103.385 25.1616C104.168 24.7845 105.06 24.596 106.061 24.596C107.091 24.596 108.012 24.7918 108.824 25.1834C109.636 25.575 110.267 26.1262 110.717 26.8369C111.181 27.5477 111.413 28.3599 111.413 29.2737V29.6219C111.413 29.7234 111.384 29.8032 111.326 29.8612C111.268 29.9192 111.188 29.9482 111.087 29.9482H107.714C107.613 29.9482 107.533 29.9192 107.475 29.8612C107.417 29.8032 107.388 29.7234 107.388 29.6219V29.3173C107.388 28.9981 107.258 28.7153 106.996 28.4687C106.75 28.2221 106.416 28.0989 105.996 28.0989C105.676 28.0989 105.415 28.1859 105.212 28.3599C105.024 28.5195 104.929 28.7443 104.929 29.0344C104.929 29.3535 105.089 29.6436 105.408 29.9047C105.742 30.1513 106.387 30.4994 107.345 30.949C107.49 31.0361 107.707 31.1521 107.997 31.2972C108.766 31.7178 109.382 32.0949 109.847 32.4285C110.311 32.7476 110.702 33.1755 111.021 33.7122C111.341 34.2344 111.5 34.8798 111.5 35.6486C111.5 37.041 111.014 38.1434 110.042 38.9557C109.085 39.7679 107.816 40.1741 106.235 40.1741Z" fill="white"/>
</svg>
